<?xml version="1.0" encoding="UTF-8" standalone="no"?>
<!DOCTYPE svg PUBLIC "-//W3C//DTD SVG 1.1//EN"
 "http://www.w3.org/Graphics/SVG/1.1/DTD/svg11.dtd">
<!-- Generated by graphviz version 2.38.0 (20140413.2041)
 -->
<!-- Title: G Pages: 1 -->
<svg width="133pt" height="294pt"
 viewBox="0.00 0.00 133.00 294.00" xmlns="http://www.w3.org/2000/svg" xmlns:xlink="http://www.w3.org/1999/xlink">
<g id="graph0" class="graph" transform="scale(1 1) rotate(0) translate(4 290)">
<title>G</title>
<polygon fill="white" stroke="none" points="-4,4 -4,-290 129,-290 129,4 -4,4"/>
<g id="clust1" class="cluster"><title>cluster_Global</title>
<path fill="none" stroke="gray" d="M20,-8C20,-8 105,-8 105,-8 111,-8 117,-14 117,-20 117,-20 117,-266 117,-266 117,-272 111,-278 105,-278 105,-278 20,-278 20,-278 14,-278 8,-272 8,-266 8,-266 8,-20 8,-20 8,-14 14,-8 20,-8"/>
<text text-anchor="middle" x="62.5" y="-265.2" font-family="Times New Roman,serif" font-size="11.00" fill="gray">Global</text>
</g>
<g id="clust2" class="cluster"><title>cluster_\Pathomation</title>
<path fill="none" stroke="gray" d="M28,-16C28,-16 97,-16 97,-16 103,-16 109,-22 109,-28 109,-28 109,-238 109,-238 109,-244 103,-250 97,-250 97,-250 28,-250 28,-250 22,-250 16,-244 16,-238 16,-238 16,-28 16,-28 16,-22 22,-16 28,-16"/>
<text text-anchor="middle" x="62.5" y="-237.2" font-family="Times New Roman,serif" font-size="11.00" fill="gray">Pathomation</text>
</g>
<!-- \\Pathomation\\Core -->
<g id="node1" class="node"><title>\\Pathomation\\Core</title>
<polygon fill="none" stroke="black" points="89.5,-222 35.5,-222 35.5,-186 89.5,-186 89.5,-222"/>
<text text-anchor="middle" x="62.5" y="-201.2" font-family="Courier,monospace" font-size="11.00">Core</text>
</g>
<!-- \\Pathomation\\UI -->
<g id="node2" class="node"><title>\\Pathomation\\UI</title>
<polygon fill="none" stroke="black" points="89.5,-168 35.5,-168 35.5,-132 89.5,-132 89.5,-168"/>
<text text-anchor="middle" x="62.5" y="-147.2" font-family="Courier,monospace" font-size="11.00">UI</text>
</g>
<!-- \\Pathomation\\CoreAdmin -->
<g id="node3" class="node"><title>\\Pathomation\\CoreAdmin</title>
<polygon fill="none" stroke="black" points="101,-114 24,-114 24,-78 101,-78 101,-114"/>
<text text-anchor="middle" x="62.5" y="-93.2" font-family="Courier,monospace" font-size="11.00">CoreAdmin</text>
</g>
<!-- \\Pathomation\\PMA -->
<g id="node4" class="node"><title>\\Pathomation\\PMA</title>
<polygon fill="none" stroke="black" points="89.5,-60 35.5,-60 35.5,-24 89.5,-24 89.5,-60"/>
<text text-anchor="middle" x="62.5" y="-39.2" font-family="Courier,monospace" font-size="11.00">PMA</text>
</g>
</g>
</svg>
