<?xml version="1.0" encoding="UTF-8" standalone="no"?>
<!DOCTYPE svg PUBLIC "-//W3C//DTD SVG 1.1//EN"
 "http://www.w3.org/Graphics/SVG/1.1/DTD/svg11.dtd">
<!-- Generated by graphviz version 2.38.0 (20140413.2041)
 -->
<!-- Title: G Pages: 1 -->
<svg width="110pt" height="240pt"
 viewBox="0.00 0.00 110.00 240.00" xmlns="http://www.w3.org/2000/svg" xmlns:xlink="http://www.w3.org/1999/xlink">
<g id="graph0" class="graph" transform="scale(1 1) rotate(0) translate(4 236)">
<title>G</title>
<polygon fill="white" stroke="none" points="-4,4 -4,-236 106,-236 106,4 -4,4"/>
<g id="clust1" class="cluster"><title>cluster_Global</title>
<path fill="none" stroke="gray" d="M19,-8C19,-8 82,-8 82,-8 88,-8 94,-14 94,-20 94,-20 94,-212 94,-212 94,-218 88,-224 82,-224 82,-224 19,-224 19,-224 13,-224 7,-218 7,-212 7,-212 7,-20 7,-20 7,-14 13,-8 19,-8"/>
<text text-anchor="middle" x="50.5" y="-211.2" font-family="Times New Roman,serif" font-size="11.00" fill="gray">Global</text>
</g>
<g id="clust2" class="cluster"><title>cluster_\Pathomation</title>
<path fill="none" stroke="gray" d="M27,-16C27,-16 74,-16 74,-16 80,-16 86,-22 86,-28 86,-28 86,-184 86,-184 86,-190 80,-196 74,-196 74,-196 27,-196 27,-196 21,-196 15,-190 15,-184 15,-184 15,-28 15,-28 15,-22 21,-16 27,-16"/>
<text text-anchor="middle" x="50.5" y="-183.2" font-family="Times New Roman,serif" font-size="11.00" fill="gray">Pathomation</text>
</g>
<!-- \\Pathomation\\Core -->
<g id="node1" class="node"><title>\\Pathomation\\Core</title>
<polygon fill="none" stroke="black" points="78,-168 24,-168 24,-132 78,-132 78,-168"/>
<text text-anchor="middle" x="51" y="-147.2" font-family="Courier,monospace" font-size="11.00">Core</text>
</g>
<!-- \\Pathomation\\UI -->
<g id="node2" class="node"><title>\\Pathomation\\UI</title>
<polygon fill="none" stroke="black" points="78,-114 24,-114 24,-78 78,-78 78,-114"/>
<text text-anchor="middle" x="51" y="-93.2" font-family="Courier,monospace" font-size="11.00">UI</text>
</g>
<!-- \\Pathomation\\PMA -->
<g id="node3" class="node"><title>\\Pathomation\\PMA</title>
<polygon fill="none" stroke="black" points="78,-60 24,-60 24,-24 78,-24 78,-60"/>
<text text-anchor="middle" x="51" y="-39.2" font-family="Courier,monospace" font-size="11.00">PMA</text>
</g>
</g>
</svg>
